<?xml version="1.0" standalone="no"?>
<!DOCTYPE svg PUBLIC "-//W3C//DTD SVG 20010904//EN"
 "http://www.w3.org/TR/2001/REC-SVG-20010904/DTD/svg10.dtd">
<svg version="1.0" xmlns="http://www.w3.org/2000/svg"
 width="1300.000000pt" height="1300.000000pt" viewBox="0 0 1300.000000 1300.000000"
 preserveAspectRatio="xMidYMid meet">

<g transform="translate(0.000000,1300.000000) scale(0.100000,-0.100000)"
fill="#000000" stroke="none">
<path d="M6427 11117 c-37 -23 -182 -113 -323 -201 -191 -118 -254 -162 -249
-174 4 -11 2 -12 -7 -4 -10 7 -50 -13 -153 -78 -77 -48 -297 -185 -490 -305
-487 -303 -664 -414 -705 -440 -19 -13 -138 -87 -265 -165 -126 -79 -261 -163
-300 -187 -74 -47 -651 -408 -745 -466 -217 -134 -274 -167 -284 -166 -6 1
-516 1 -1133 0 l-1123 -1 0 -215 0 -215 5850 0 5850 0 0 215 0 215 -1136 0
-1135 0 -147 91 c-81 51 -167 105 -192 120 -328 207 -345 217 -358 207 -9 -8
-11 -7 -7 4 4 10 -31 37 -122 93 -70 43 -157 98 -193 121 -36 23 -258 162
-495 309 -236 147 -500 311 -585 365 -159 100 -636 396 -747 464 -36 22 -67
35 -74 30 -8 -4 -10 -3 -5 4 4 7 -24 30 -70 59 -42 26 -90 57 -108 68 -17 11
-92 58 -166 104 -74 46 -174 108 -221 137 -47 30 -88 54 -90 54 -2 0 -34 -20
-72 -43z m289 -388 c284 -178 259 -167 298 -132 l31 28 -30 -34 c-16 -18 -25
-35 -20 -38 6 -2 76 -45 158 -96 81 -50 240 -150 355 -221 114 -71 266 -166
337 -211 72 -45 216 -135 320 -200 105 -65 249 -155 320 -200 72 -45 342 -214
600 -375 259 -161 488 -304 511 -319 22 -14 124 -78 227 -141 103 -63 187
-118 187 -122 0 -5 -1579 -8 -3510 -8 -1931 0 -3510 3 -3510 8 1 4 185 122
410 262 402 250 409 255 392 275 -17 20 -17 20 4 2 21 -17 36 -9 985 584 971
606 1097 685 1489 932 118 74 220 136 226 136 6 1 105 -58 220 -130z m384 -54
c-24 -25 -46 -45 -49 -45 -3 0 15 20 39 45 24 25 46 45 49 45 3 0 -15 -20 -39
-45z m-1105 -75 c10 -11 16 -20 13 -20 -3 0 -13 9 -23 20 -10 11 -16 20 -13
20 3 0 13 -9 23 -20z m-2314 -1277 c13 -16 12 -17 -3 -4 -10 7 -18 15 -18 17
0 8 8 3 21 -13z m5589 -86 c0 -2 -12 -14 -27 -28 l-28 -24 24 28 c23 25 31 32
31 24z"/>
<path d="M6366 9874 c-225 -71 -352 -322 -276 -548 104 -312 505 -394 730
-149 193 211 131 538 -126 669 -72 36 -82 39 -178 41 -70 2 -116 -2 -150 -13z"/>
<path d="M650 5604 l0 -2734 2887 0 2887 0 -49 52 -50 53 55 -53 56 -52 89 0
89 0 51 48 50 47 -45 -47 -44 -48 2862 0 2862 0 0 2735 0 2734 -5850 0 -5850
-1 0 -2734z m8530 2198 c0 -281 3 -371 13 -381 9 -11 9 -13 0 -7 -10 6 -13
-192 -13 -974 0 -782 3 -980 13 -974 10 6 10 4 0 -7 -10 -10 -13 -267 -13
-1216 l0 -1203 -1192 0 -1192 0 -41 -38 -40 -37 34 38 35 37 -259 0 -259 0 30
-32 29 -33 -35 33 -36 32 -1217 0 -1217 0 0 373 c0 204 0 747 0 1206 l0 835
-27 30 -28 31 28 -24 27 -24 0 1351 0 1352 2680 0 2680 0 0 -368z m-7040 -205
c0 -349 3 -456 13 -466 10 -11 10 -13 0 -7 -10 6 -13 -140 -13 -712 0 -395 -2
-721 -4 -723 -2 -2 -252 -3 -555 -1 l-551 2 0 1180 1 1180 554 0 555 0 0 -453z
m1280 -727 l-1 -1180 -555 0 -554 0 0 88 c0 48 0 334 0 636 l0 550 -32 35 -33
36 33 -29 32 -30 0 537 0 537 555 0 555 0 0 -1180z m7250 0 l0 -1180 -555 0
-555 0 0 66 c0 62 -1 65 -17 53 -17 -13 -17 -13 0 7 16 19 17 64 17 624 0 560
-1 605 -17 624 -17 20 -17 20 0 7 16 -13 17 12 17 483 l0 496 555 0 555 0 0
-1180z m1270 0 l0 -1180 -507 0 -506 0 19 -22 19 -23 -26 23 c-18 15 -38 22
-67 22 l-42 0 0 43 c0 24 -6 49 -12 56 -10 11 -10 13 0 7 9 -6 12 126 12 644
0 518 -3 650 -12 644 -10 -6 -10 -4 0 7 9 10 12 121 12 486 l0 473 555 0 555
0 0 -1180z m-8150 477 c0 -2 -10 -12 -22 -23 l-23 -19 19 23 c18 21 26 27 26
19z m-1584 -269 l29 -33 -32 29 c-31 28 -38 36 -30 36 2 0 16 -15 33 -32z
m1244 -72 c0 -2 -8 -10 -17 -17 -16 -13 -17 -12 -4 4 13 16 21 21 21 13z m36
-1208 l29 -33 -32 29 c-31 28 -38 36 -30 36 2 0 16 -15 33 -32z m80 -80 l29
-33 -32 29 c-31 28 -38 36 -30 36 2 0 16 -15 33 -32z m80 -80 l29 -33 -32 29
c-31 28 -38 36 -30 36 2 0 16 -15 33 -32z m80 -80 l29 -33 -32 29 c-31 28 -38
36 -30 36 2 0 16 -15 33 -32z m-1736 -13 l-23 -25 86 0 87 0 0 -1007 c0 -944
1 -1008 18 -1027 16 -20 16 -20 0 -7 -17 13 -18 4 -18 -153 l0 -166 -555 0
-555 0 0 1180 1 1180 463 0 463 0 23 25 c13 14 26 25 28 25 3 0 -5 -11 -18
-25z m9950 -1205 l0 -1180 -555 0 -555 0 0 136 c0 128 -1 136 -17 123 -17 -13
-17 -13 0 7 16 19 17 84 17 1057 l0 1036 128 3 c70 2 319 2 555 0 l427 -2 0
-1180z m-8522 116 c-2 -633 1 -1062 6 -1059 5 4 6 0 1 -7 -5 -8 -7 -62 -6
-122 l2 -108 -113 0 c-77 0 -118 -4 -127 -12 -11 -11 -13 -10 -7 0 6 10 -80
12 -425 12 -237 0 -433 1 -435 2 -5 5 -5 146 -5 1266 l1 1092 555 0 555 0 -2
-1064z m7249 -46 c2 -608 3 -1109 3 -1114 0 -5 10 -1 23 10 l22 19 -22 -26
c-18 -20 -23 -37 -23 -82 l0 -57 -58 0 c-33 0 -64 -5 -71 -12 -11 -11 -13 -10
-7 0 6 10 -61 12 -341 12 -191 0 -412 0 -490 0 l-143 0 0 137 c0 135 0 137
-27 167 l-28 31 28 -24 27 -24 0 1036 0 1037 553 -2 552 -3 2 -1105z m-7927
-1505 c13 -14 21 -25 18 -25 -2 0 -15 11 -28 25 -13 14 -21 25 -18 25 2 0 15
-11 28 -25z m7360 0 c13 -14 21 -25 18 -25 -2 0 -15 11 -28 25 -13 14 -21 25
-18 25 2 0 15 -11 28 -25z"/>
<path d="M4410 7010 l0 -690 957 0 957 0 41 38 40 37 -34 -37 -35 -38 179 0
179 0 -30 33 -29 32 35 -32 36 -33 937 0 937 0 0 690 0 690 -2085 0 -2085 0 0
-690z m1070 535 c19 -19 32 -35 29 -35 -3 0 -20 16 -39 35 -19 19 -32 35 -29
35 3 0 20 -16 39 -35z m2032 -47 l-31 -33 75 3 c136 6 207 -54 220 -186 l7
-62 -67 0 -66 0 0 31 c0 32 -15 69 -34 81 -19 13 -74 9 -89 -7 -24 -23 -30
-69 -15 -117 9 -32 38 -69 115 -150 126 -130 147 -170 147 -283 1 -127 -44
-192 -151 -216 -59 -14 -148 2 -188 33 -42 33 -68 95 -73 176 l-5 72 65 0 66
0 4 -60 c5 -71 23 -94 72 -94 51 0 76 27 76 81 0 63 -20 96 -131 209 -63 65
-106 118 -120 149 -28 64 -35 148 -16 202 9 28 11 40 3 36 -6 -3 27 33 74 81
46 47 87 86 89 86 3 0 -9 -15 -27 -32z m-1849 -38 l97 0 0 -97 0 -97 38 -41
37 -40 -37 34 -38 35 0 -347 0 -347 -70 0 -70 0 -1 313 -1 312 -19 -125 c-30
-202 -69 -453 -75 -477 -4 -21 -10 -23 -67 -23 l-63 0 -27 153 c-14 83 -36
220 -49 302 l-23 150 -5 -300 -5 -300 -57 -3 -58 -3 0 451 0 450 95 0 c52 0
95 -2 95 -5 0 -13 100 -609 103 -611 2 -2 24 134 50 303 l47 307 -22 25 -23
26 26 -22 c22 -21 36 -23 122 -23z m1538 -13 c42 -22 75 -68 94 -131 5 -18 8
-17 38 10 l32 29 -32 -35 c-23 -25 -33 -46 -33 -68 0 -27 -4 -32 -25 -32 -14
0 -27 1 -30 3 -2 1 -30 -23 -62 -53 l-58 -55 50 53 49 52 -32 0 c-31 0 -32 2
-32 41 0 61 -14 79 -60 79 -58 0 -73 -20 -68 -95 3 -51 9 -69 37 -103 19 -25
38 -39 44 -35 7 3 9 2 4 -2 -4 -5 24 -40 62 -79 81 -84 111 -140 118 -217 17
-181 -92 -284 -262 -249 -103 21 -155 96 -155 222 l0 59 68 -3 67 -3 5 -62 c3
-34 10 -67 16 -73 16 -16 79 -17 98 -1 23 19 30 77 16 124 -14 48 -126 171
-147 162 -8 -2 -11 0 -8 5 3 5 -14 34 -39 65 -50 60 -68 112 -69 195 -1 100
39 175 108 206 50 22 155 18 206 -9z m-2121 -52 l0 -65 -125 0 -125 0 0 -125
0 -125 100 0 100 0 0 -65 0 -65 -100 0 -100 0 0 -130 0 -130 125 0 125 0 0
-65 0 -65 -192 2 -193 3 -3 448 -2 447 195 0 195 0 0 -65z m1108 44 c35 -18
49 -32 68 -73 33 -72 33 -180 0 -252 -13 -28 -31 -54 -40 -57 -22 -9 -20 -24
4 -32 11 -3 32 -27 47 -53 24 -41 28 -58 30 -145 1 -54 6 -103 9 -110 4 -7 4
-9 -1 -5 -4 4 -19 -15 -32 -43 -18 -36 -38 -57 -71 -76 -43 -25 -55 -27 -194
-31 l-148 -4 0 299 c0 225 -3 302 -12 312 -10 11 -10 13 0 7 9 -6 12 25 12
138 l0 146 142 0 c124 0 147 -3 186 -21z m506 4 c2 -10 18 -106 35 -213 17
-107 47 -294 66 -416 19 -121 35 -228 35 -237 0 -14 -11 -17 -65 -17 -70 0
-69 -1 -80 63 -5 34 -8 37 -23 25 -14 -11 -14 -9 1 8 12 15 16 30 11 48 -6 26
-8 26 -93 26 l-88 0 -10 -87 c-9 -82 -9 -90 10 -110 17 -19 23 -21 36 -10 14
11 14 10 2 -6 -13 -17 -16 -16 -46 13 -27 26 -38 30 -88 30 l-56 0 5 33 c3 17
8 38 10 46 3 8 -6 26 -18 40 -21 24 -21 24 -1 8 21 -18 21 -18 27 10 2 15 8
48 11 73 3 25 15 95 26 155 10 61 33 196 50 300 16 105 33 200 36 213 5 21 10
22 103 22 85 0 99 -2 104 -17z m1294 -105 c52 -198 72 -271 75 -275 2 -2 21
66 42 149 21 84 44 174 52 201 l14 47 66 0 c63 0 65 -1 60 -22 -4 -22 -69
-236 -143 -475 -32 -105 -34 -119 -34 -257 l0 -146 -65 0 -65 0 0 146 c0 133
-3 155 -29 242 -66 217 -151 502 -151 507 0 3 33 5 73 5 l73 0 32 -122z
m-1048 -413 c-24 -25 -46 -45 -49 -45 -3 0 15 20 39 45 24 25 46 45 49 45 3 0
-15 -20 -39 -45z m-60 -58 c0 -2 -17 -19 -37 -38 l-38 -34 34 38 c33 34 41 42
41 34z m-240 -240 c0 -2 -17 -19 -37 -38 l-38 -34 34 38 c33 34 41 42 41 34z
m-150 -150 c0 -2 -19 -21 -42 -42 l-43 -40 40 43 c36 39 45 47 45 39z m105
-47 c21 -22 37 -40 34 -40 -3 0 -23 18 -44 40 -21 22 -37 40 -34 40 3 0 23
-18 44 -40z"/>
<path d="M6000 7215 l0 -115 56 0 c53 0 55 1 70 35 25 60 14 166 -19 187 -7 4
-33 8 -59 8 l-48 0 0 -115z"/>
<path d="M6000 6830 l0 -140 43 1 c70 2 91 11 104 49 20 57 16 110 -9 139 -13
14 -15 19 -5 12 15 -12 17 -11 17 8 0 28 -43 71 -71 71 -22 0 -22 -1 7 -32
l29 -33 -35 33 c-20 17 -46 32 -58 32 -22 0 -22 -2 -22 -140z"/>
<path d="M6576 7260 c-7 -40 -44 -290 -53 -362 l-6 -48 67 0 c64 0 66 1 61 23
-2 12 -16 108 -30 212 -30 221 -30 221 -39 175z"/>
<path d="M5408 6012 l-518 -2 -2 -753 c-2 -413 -2 -1046 0 -1404 l2 -653 602
0 602 0 -44 48 -45 47 50 -47 51 -48 419 0 419 0 46 43 45 42 -40 -42 -39 -43
577 0 577 0 0 478 c1 1149 -1 2326 -4 2329 -1 2 -470 3 -1041 3 l-1038 1 -51
-48 -51 -48 43 45 c23 25 42 48 42 51 0 2 -19 4 -42 4 -24 0 -276 -1 -560 -3z
m1632 -27 c13 -14 21 -25 18 -25 -2 0 -15 11 -28 25 -13 14 -21 25 -18 25 2 0
15 -11 28 -25z m55 -55 c10 -11 16 -20 13 -20 -3 0 -13 9 -23 20 -10 11 -16
20 -13 20 3 0 13 -9 23 -20z m896 -935 c1 -498 2 -912 2 -920 0 -8 -1 -172 -2
-364 l-1 -350 -437 -1 c-395 0 -439 -2 -458 -18 -11 -9 -14 -10 -7 -2 6 8 12
16 12 19 0 4 -259 6 -575 6 -316 0 -575 -2 -575 -5 0 -3 -211 -4 -470 -2
l-470 2 -1 583 c0 320 0 686 0 812 1 127 1 436 1 687 l0 458 453 2 c248 2 919
2 1490 0 l1037 -2 1 -905z m-2006 -1675 c10 -11 16 -20 13 -20 -3 0 -13 9 -23
20 -10 11 -16 20 -13 20 3 0 13 -9 23 -20z m1085 -4 c0 -2 -8 -10 -17 -17 -16
-13 -17 -12 -4 4 13 16 21 21 21 13z"/>
<path d="M6460 5710 c-20 -20 -20 -33 -20 -1100 l0 -1080 55 0 55 0 0 1084 c0
973 -2 1086 -16 1100 -21 22 -50 20 -74 -4z"/>
<path d="M5320 5456 c0 -140 -3 -261 -6 -270 -6 -14 36 -16 430 -16 l436 0 0
270 0 270 -227 0 c-201 0 -229 -2 -247 -17 -20 -17 -20 -17 -7 0 13 16 3 17
-183 17 l-196 0 0 -254z m360 211 c0 -2 -17 -19 -37 -38 l-38 -34 34 38 c33
34 41 42 41 34z m-80 -80 c0 -2 -17 -19 -37 -38 l-38 -34 34 38 c33 34 41 42
41 34z m-80 -80 c0 -2 -17 -19 -37 -38 l-38 -34 34 38 c33 34 41 42 41 34z
m-80 -80 c0 -2 -12 -14 -27 -28 l-28 -24 24 28 c23 25 31 32 31 24z"/>
<path d="M6820 5440 l0 -270 430 0 430 0 0 270 0 270 -430 0 -430 0 0 -270z
m560 205 c30 -30 52 -55 49 -55 -2 0 -29 25 -59 55 -30 30 -52 55 -49 55 2 0
29 -25 59 -55z m100 -100 c19 -19 32 -35 29 -35 -3 0 -20 16 -39 35 -19 19
-32 35 -29 35 3 0 20 -16 39 -35z m70 -70 c13 -14 21 -25 18 -25 -2 0 -15 11
-28 25 -13 14 -21 25 -18 25 2 0 15 -11 28 -25z"/>
<path d="M5320 4630 l0 -270 430 0 430 0 0 270 0 270 -430 0 -430 0 0 -270z"/>
<path d="M6820 4630 l0 -270 430 0 430 0 0 270 0 270 -430 0 -430 0 0 -270z"/>
<path d="M5320 3820 l0 -270 212 0 212 0 -30 33 -29 32 36 -33 35 -32 210 2
209 3 3 268 2 267 -430 0 -430 0 0 -270z m250 -85 c19 -19 32 -35 29 -35 -3 0
-20 16 -39 35 -19 19 -32 35 -29 35 3 0 20 -16 39 -35z m80 -80 c19 -19 32
-35 29 -35 -3 0 -20 16 -39 35 -19 19 -32 35 -29 35 3 0 20 -16 39 -35z"/>
<path d="M6825 4077 c-3 -7 -4 -127 -3 -267 l3 -255 234 -3 235 -2 30 27 31
28 -24 -27 -24 -28 186 0 187 0 0 270 0 270 -425 0 c-334 0 -427 -3 -430 -13z
m685 -320 c0 -2 -17 -19 -37 -38 l-38 -34 34 38 c33 34 41 42 41 34z m-80 -80
c0 -2 -17 -19 -37 -38 l-38 -34 34 38 c33 34 41 42 41 34z"/>
<path d="M1150 6865 l0 -1065 435 0 435 0 0 728 c0 569 -3 731 -12 741 -10 11
-10 13 0 7 9 -6 12 62 12 323 l0 331 -435 0 -435 0 0 -1065z m580 690 c13 -14
21 -25 18 -25 -2 0 -15 11 -28 25 -13 14 -21 25 -18 25 2 0 15 -11 28 -25z
m76 -77 l29 -33 -32 29 c-18 17 -33 31 -33 33 0 8 8 1 36 -29z m80 -80 l29
-33 -32 29 c-18 17 -33 31 -33 33 0 8 8 1 36 -29z m80 -80 l29 -33 -32 29
c-18 17 -33 31 -33 33 0 8 8 1 36 -29z"/>
<path d="M2430 7393 l0 -537 23 -25 22 -26 -22 19 -23 19 0 -522 0 -521 433 2
432 3 3 83 c2 50 -2 89 -8 97 -7 9 -8 15 -1 19 7 4 10 156 11 428 0 401 0 420
-17 407 -17 -13 -17 -13 -1 7 16 18 17 64 18 552 l0 532 -435 0 -435 0 0 -537z
m96 -635 l29 -33 -32 29 c-31 28 -38 36 -30 36 2 0 16 -15 33 -32z m80 -80
l29 -33 -32 29 c-31 28 -38 36 -30 36 2 0 16 -15 33 -32z m80 -80 l29 -33 -32
29 c-31 28 -38 36 -30 36 2 0 16 -15 33 -32z m80 -80 l29 -33 -32 29 c-31 28
-38 36 -30 36 2 0 16 -15 33 -32z m101 -102 c-1 -1 -15 -12 -32 -26 l-30 -25
24 28 24 27 -24 28 c-23 26 -23 26 8 -2 18 -16 32 -30 30 -30z m59 -58 l29
-33 -32 29 c-31 28 -38 36 -30 36 2 0 16 -15 33 -32z m80 -80 l29 -33 -32 29
c-31 28 -38 36 -30 36 2 0 16 -15 33 -32z m80 -80 l29 -33 -32 29 c-31 28 -38
36 -30 36 2 0 16 -15 33 -32z m80 -80 l29 -33 -32 29 c-31 28 -38 36 -30 36 2
0 16 -15 33 -32z m80 -80 l29 -33 -32 29 c-31 28 -38 36 -30 36 2 0 16 -15 33
-32z m-756 9 c0 -2 -12 -14 -27 -28 l-28 -24 24 28 c23 25 31 32 31 24z"/>
<path d="M9680 6865 l0 -1065 430 0 430 0 0 125 c1 69 1 301 1 515 0 215 0
638 -1 940 l0 550 -430 0 -430 0 0 -1065z m506 -425 c0 -12 -4 -16 -9 -11 -5
5 -6 14 -3 20 10 15 12 14 12 -9z"/>
<path d="M10950 6865 l0 -1065 435 0 435 0 0 1065 0 1065 -435 0 -435 0 0
-1065z"/>
<path d="M1150 4335 l0 -1065 435 0 435 0 0 172 c0 149 -2 174 -17 192 -17 20
-17 20 0 7 16 -13 17 30 17 872 l0 886 -435 1 -435 0 0 -1065z m611 -452 c13
-16 12 -17 -3 -4 -10 7 -18 15 -18 17 0 8 8 3 21 -13z"/>
<path d="M10950 4335 l0 -1065 435 0 435 0 0 1065 0 1065 -435 0 -435 0 0
-1065z"/>
<path d="M2430 4335 l0 -1065 433 2 432 3 3 1063 2 1062 -435 0 -435 0 0
-1065z"/>
<path d="M9680 4363 c0 -973 1 -1038 18 -1057 16 -20 16 -20 0 -7 -16 12 -18
11 -18 -7 0 -21 1 -21 429 -22 282 0 430 3 433 10 1 5 2 485 0 1065 l-2 1055
-430 0 -430 0 0 -1037z"/>
<path d="M650 2275 l0 -435 607 0 607 0 25 23 26 22 -19 -22 -19 -23 1854 0
1853 0 46 42 45 43 -40 -42 -39 -43 929 0 929 0 -44 48 -45 47 50 -47 51 -48
879 0 879 0 25 23 26 22 -19 -22 -19 -23 1556 0 1557 0 0 435 0 435 -1027 0
-1026 0 19 -22 19 -23 -26 23 c-22 19 -36 22 -108 22 -45 0 -92 -5 -103 -11
-15 -8 -19 -8 -14 0 5 8 -472 11 -1740 11 l-1747 0 24 -27 24 -28 -31 28 c-26
23 -39 27 -89 27 -53 0 -63 -4 -95 -32 l-35 -33 29 33 30 32 -1759 0 -1758 0
19 -22 19 -23 -26 23 c-22 19 -36 22 -108 22 -45 0 -92 -5 -103 -11 -15 -8
-19 -8 -14 0 5 8 -279 11 -1033 11 l-1041 0 0 -435z m6040 340 c19 -19 32 -35
29 -35 -3 0 -20 16 -39 35 -19 19 -32 35 -29 35 3 0 20 -16 39 -35z m-300 22
c0 -2 -17 -19 -37 -38 l-38 -34 34 38 c33 34 41 42 41 34z m380 -102 c19 -19
32 -35 29 -35 -3 0 -20 16 -39 35 -19 19 -32 35 -29 35 3 0 20 -16 39 -35z
m-460 22 c0 -2 -17 -19 -37 -38 l-38 -34 34 38 c33 34 41 42 41 34z m540 -102
c19 -19 32 -35 29 -35 -3 0 -20 16 -39 35 -19 19 -32 35 -29 35 3 0 20 -16 39
-35z m-620 22 c0 -2 -17 -19 -37 -38 l-38 -34 34 38 c33 34 41 42 41 34z m700
-102 c19 -19 32 -35 29 -35 -3 0 -20 16 -39 35 -19 19 -32 35 -29 35 3 0 20
-16 39 -35z m-780 22 c0 -2 -17 -19 -37 -38 l-38 -34 34 38 c33 34 41 42 41
34z m860 -102 c19 -19 32 -35 29 -35 -3 0 -20 16 -39 35 -19 19 -32 35 -29 35
3 0 20 -16 39 -35z m-940 22 c0 -2 -17 -19 -37 -38 l-38 -34 34 38 c33 34 41
42 41 34z m1020 -102 c19 -19 32 -35 29 -35 -3 0 -20 16 -39 35 -19 19 -32 35
-29 35 3 0 20 -16 39 -35z m-1100 22 c0 -2 -17 -19 -37 -38 l-38 -34 34 38
c33 34 41 42 41 34z m1180 -102 c19 -19 32 -35 29 -35 -3 0 -20 16 -39 35 -19
19 -32 35 -29 35 3 0 20 -16 39 -35z m-1260 22 c0 -2 -17 -19 -37 -38 l-38
-34 34 38 c33 34 41 42 41 34z m1340 -102 c19 -19 32 -35 29 -35 -3 0 -20 16
-39 35 -19 19 -32 35 -29 35 3 0 20 -16 39 -35z m-1420 22 c0 -2 -17 -19 -37
-38 l-38 -34 34 38 c33 34 41 42 41 34z m1500 -102 c19 -19 32 -35 29 -35 -3
0 -20 16 -39 35 -19 19 -32 35 -29 35 3 0 20 -16 39 -35z m-1580 22 c0 -2 -17
-19 -37 -38 l-38 -34 34 38 c33 34 41 42 41 34z m-1975 -127 c10 -11 16 -20
13 -20 -3 0 -13 9 -23 20 -10 11 -16 20 -13 20 3 0 13 -9 23 -20z m7360 0 c10
-11 16 -20 13 -20 -3 0 -13 9 -23 20 -10 11 -16 20 -13 20 3 0 13 -9 23 -20z"/>
</g>
</svg>
