<?xml version="1.0" standalone="no"?>
<!DOCTYPE svg PUBLIC "-//W3C//DTD SVG 20010904//EN"
 "http://www.w3.org/TR/2001/REC-SVG-20010904/DTD/svg10.dtd">
<svg version="1.0" xmlns="http://www.w3.org/2000/svg"
 width="628.000000pt" height="980.000000pt" viewBox="0 0 628.000000 980.000000"
 preserveAspectRatio="xMidYMid meet">

<g transform="translate(0.000000,980.000000) scale(0.100000,-0.100000)"
fill="#000000" stroke="none">
<path d="M2918 9766 c-231 -139 -391 -350 -459 -606 -18 -68 -23 -112 -23
-225 0 -128 2 -147 27 -220 33 -93 81 -184 224 -424 203 -339 248 -460 260
-696 18 -377 -128 -705 -420 -940 -165 -134 -349 -198 -562 -199 -206 0 -361
60 -491 189 -115 114 -175 255 -189 444 -4 50 -11 91 -14 91 -10 0 -71 -66
-120 -129 -51 -66 -123 -213 -148 -301 -14 -53 -18 -102 -17 -260 0 -336 16
-388 281 -970 143 -313 188 -460 214 -699 14 -136 7 -342 -16 -456 -45 -222
-126 -385 -255 -515 -136 -137 -241 -180 -440 -180 -84 0 -118 5 -171 24 -174
61 -347 235 -467 471 l-46 90 -12 -55 c-51 -219 -68 -400 -68 -730 0 -837 182
-1607 504 -2135 378 -620 943 -1022 1708 -1214 327 -82 630 -116 1027 -115
381 0 628 33 937 123 955 280 1638 971 1966 1991 90 281 126 507 126 800 0
307 -37 528 -130 777 -43 116 -110 253 -124 253 -5 0 -14 -19 -21 -42 -37
-138 -53 -181 -95 -253 -136 -232 -373 -366 -624 -352 -119 6 -183 26 -262 80
-124 85 -183 210 -183 387 1 204 61 338 284 634 290 383 401 589 431 793 13
91 13 390 -1 511 -23 217 -97 415 -224 607 -55 83 -189 223 -198 209 -3 -5 1
-43 8 -84 44 -243 -16 -470 -166 -622 -44 -45 -86 -77 -125 -95 -54 -24 -69
-27 -195 -27 l-136 -1 -87 44 c-109 55 -173 112 -217 193 l-34 63 0 230 1 230
61 250 c77 311 86 386 81 662 -5 192 -8 229 -30 313 -51 188 -133 324 -296
493 -126 129 -264 241 -537 437 -344 246 -412 312 -496 477 l-44 88 0 195 c0
191 1 197 33 308 18 63 32 116 29 118 -2 2 -29 -11 -59 -30z m387 -4424 c-35
-101 -49 -261 -42 -496 6 -211 18 -303 67 -490 78 -302 198 -543 307 -615 170
-113 341 -29 474 233 40 78 56 101 62 90 5 -9 9 -84 9 -167 1 -225 -25 -333
-168 -689 l-76 -187 4 -298 3 -298 28 -56 c33 -68 119 -152 184 -181 71 -32
180 -30 253 4 85 39 154 100 231 204 38 52 71 94 72 94 7 0 -15 -313 -28 -404
-41 -284 -185 -577 -380 -771 -179 -180 -406 -302 -692 -375 -199 -50 -250
-55 -508 -54 -282 2 -362 11 -511 62 -201 69 -370 177 -534 342 -223 225 -382
523 -474 888 -44 172 -79 412 -61 412 3 0 35 -24 72 -54 70 -59 145 -99 218
-117 58 -15 195 -6 260 16 124 41 260 168 308 285 20 49 22 72 22 210 0 179
-11 237 -87 490 -97 321 -132 554 -110 743 19 157 60 294 83 270 4 -4 17 -43
28 -86 25 -92 40 -124 91 -192 38 -52 108 -97 167 -110 47 -10 131 18 178 58
89 77 125 176 185 505 75 410 135 557 296 731 85 92 100 93 69 3z"/>
</g>
</svg>
