<?xml version="1.0" standalone="no"?>
<!DOCTYPE svg PUBLIC "-//W3C//DTD SVG 20010904//EN"
 "http://www.w3.org/TR/2001/REC-SVG-20010904/DTD/svg10.dtd">
<svg version="1.0" xmlns="http://www.w3.org/2000/svg"
 width="708.000000pt" height="981.000000pt" viewBox="0 0 708.000000 981.000000"
 preserveAspectRatio="xMidYMid meet">

<g transform="translate(0.000000,981.000000) scale(0.100000,-0.100000)"
fill="#000000" stroke="none">
<path d="M3652 9744 c-436 -227 -853 -615 -1129 -1048 -79 -123 -219 -405
-268 -539 -267 -730 -257 -1566 31 -2497 84 -272 98 -358 99 -595 0 -308 -52
-539 -186 -824 -71 -150 -232 -411 -246 -398 -2 3 5 40 16 83 52 213 75 413
75 674 0 240 -15 376 -64 571 -89 359 -258 657 -516 911 -121 118 -197 180
-333 270 -103 67 -146 82 -157 54 -3 -8 6 -83 20 -167 46 -279 60 -444 60
-734 0 -201 -4 -301 -17 -394 -51 -366 -135 -580 -319 -816 -220 -283 -375
-546 -498 -846 -164 -399 -239 -816 -210 -1169 72 -885 659 -1550 1765 -1998
229 -92 529 -177 887 -251 148 -31 172 -31 182 -5 10 27 -5 40 -112 93 -215
106 -404 251 -516 394 -164 211 -236 436 -223 701 11 215 55 382 182 681 146
343 223 600 256 850 17 132 7 370 -20 464 -12 40 -20 76 -17 78 10 11 156 -97
240 -177 210 -202 306 -452 267 -699 -13 -80 -6 -101 31 -101 25 0 251 225
350 350 246 307 397 614 470 950 19 90 22 134 22 310 0 172 -4 220 -21 300
-23 101 -57 212 -92 298 -12 30 -17 52 -11 50 33 -11 204 -143 273 -212 281
-277 417 -613 417 -1031 0 -223 -25 -378 -105 -660 -70 -243 -72 -406 -8 -610
54 -173 219 -435 274 -435 38 0 41 24 15 114 -62 213 -72 473 -27 656 46 183
165 368 310 483 l64 51 -6 -34 c-3 -19 -11 -101 -18 -182 -28 -320 32 -588
170 -762 296 -373 410 -819 299 -1166 -62 -194 -199 -372 -392 -510 -77 -55
-90 -76 -60 -101 44 -37 648 221 959 410 719 436 1131 1006 1241 1721 27 170
25 525 -4 717 -54 361 -154 691 -327 1083 -300 678 -470 1234 -542 1766 -26
199 -24 610 5 765 37 203 100 372 179 483 40 56 40 96 -1 96 -30 0 -221 -98
-351 -179 -471 -297 -801 -683 -949 -1110 -67 -193 -80 -277 -81 -532 l0 -227
-56 49 c-74 64 -261 259 -375 389 -618 714 -994 1480 -1099 2241 -23 164 -30
485 -16 654 36 406 149 803 337 1177 36 72 42 92 34 108 -16 30 -41 25 -158
-36z"/>
</g>
</svg>
