<?xml version="1.0" standalone="no"?>
<!DOCTYPE svg PUBLIC "-//W3C//DTD SVG 20010904//EN"
 "http://www.w3.org/TR/2001/REC-SVG-20010904/DTD/svg10.dtd">
<svg version="1.0" xmlns="http://www.w3.org/2000/svg"
 width="360.000000pt" height="360.000000pt" viewBox="0 0 360.000000 360.000000"
 preserveAspectRatio="xMidYMid meet">

<g transform="translate(0.000000,360.000000) scale(0.100000,-0.100000)"
fill="#000000" stroke="none">
<path d="M1618 3125 c-149 -34 -281 -103 -393 -207 -222 -206 -322 -518 -255
-796 70 -292 319 -755 691 -1282 138 -196 136 -193 147 -186 12 7 283 404 389
571 325 510 479 885 458 1115 -22 238 -109 421 -274 577 -90 85 -229 162 -356
198 -85 24 -319 29 -407 10z m254 -416 c72 -15 161 -64 204 -112 20 -22 50
-69 68 -106 27 -57 31 -77 31 -146 0 -95 -20 -156 -76 -231 -97 -131 -280
-183 -432 -125 -76 30 -167 114 -204 189 -25 51 -28 67 -28 162 0 94 3 111 28
161 49 101 160 187 270 208 60 12 80 12 139 0z"/>
<path d="M1339 1060 c-110 -24 -230 -64 -292 -97 -66 -36 -134 -111 -143 -158
-27 -147 155 -265 511 -331 143 -27 625 -27 765 -1 277 51 439 124 501 223 30
49 23 128 -16 179 -63 84 -248 161 -476 199 -35 6 -38 5 -69 -44 -18 -28 -31
-52 -29 -54 2 -1 48 -10 101 -19 195 -34 363 -104 390 -162 17 -38 -13 -73
-102 -117 -232 -116 -729 -153 -1095 -82 -184 36 -345 105 -364 156 -28 74
146 165 394 206 l106 17 -37 53 c-20 28 -42 52 -48 51 -6 0 -50 -9 -97 -19z"/>
</g>
</svg>
