<?xml version="1.0" standalone="no"?>
<!DOCTYPE svg PUBLIC "-//W3C//DTD SVG 20010904//EN"
 "http://www.w3.org/TR/2001/REC-SVG-20010904/DTD/svg10.dtd">
<svg version="1.0" xmlns="http://www.w3.org/2000/svg"
 width="1200.000000pt" height="1200.000000pt" viewBox="0 0 1200.000000 1200.000000"
 preserveAspectRatio="xMidYMid meet">

<g transform="translate(0.000000,1200.000000) scale(0.100000,-0.100000)"
fill="#000000" stroke="none">
<path d="M5710 10979 c-476 -49 -930 -209 -1325 -467 -178 -116 -297 -213
-471 -387 -261 -260 -411 -468 -569 -790 -140 -285 -228 -563 -277 -878 -29
-191 -32 -588 -5 -772 88 -591 308 -1103 725 -1690 40 -55 68 -101 64 -103 -4
-1 -297 -121 -652 -265 -532 -218 -651 -270 -680 -298 -33 -32 -92 -189 -773
-2062 -536 -1475 -737 -2038 -737 -2069 0 -96 74 -176 169 -186 49 -4 97 8
711 189 74 21 519 151 988 288 l854 248 1115 -363 c688 -225 1129 -364 1153
-364 32 0 1008 312 2100 672 85 28 162 51 170 51 8 0 575 -163 1259 -363 1364
-397 1297 -382 1380 -327 46 31 81 97 81 155 0 31 -201 595 -737 2069 -682
1874 -740 2030 -773 2062 -29 28 -147 80 -680 297 -355 145 -648 265 -652 266
-4 2 24 48 64 103 417 587 637 1099 725 1690 27 183 24 581 -5 770 -81 521
-281 988 -602 1405 -96 125 -389 416 -515 511 -466 354 -968 552 -1544 609
-121 12 -439 11 -561 -1z m664 -399 c278 -41 497 -110 761 -239 267 -131 476
-280 685 -490 198 -199 351 -408 474 -651 253 -497 336 -1025 245 -1560 -88
-517 -331 -1022 -767 -1589 -177 -231 -371 -457 -836 -975 -447 -499 -649
-740 -831 -988 -55 -75 -102 -137 -105 -137 -3 0 -50 62 -105 137 -182 248
-384 489 -831 988 -465 518 -659 744 -836 975 -436 567 -679 1072 -767 1589
-91 536 -8 1063 245 1560 123 243 276 452 474 651 432 433 991 693 1607 749
145 13 427 3 587 -20z m-2230 -5042 c20 -23 36 -49 36 -57 0 -18 -611 -3384
-615 -3389 -2 -3 -365 -109 -1440 -421 -324 -95 -595 -174 -602 -176 -14 -5
-75 -175 672 1877 l610 1676 645 265 c355 146 648 265 652 266 3 1 23 -18 42
-41z m4407 -226 l644 -264 610 -1676 c336 -921 627 -1722 647 -1778 l37 -102
-32 9 c-128 35 -2020 589 -2022 591 -4 5 -615 3371 -615 3389 0 18 69 101 80
97 4 -2 297 -121 651 -266z m-3769 -497 c507 -568 734 -844 941 -1146 l87
-127 0 -1036 c0 -570 -3 -1036 -7 -1036 -5 0 -42 11 -83 24 -198 64 -979 319
-1351 440 l-416 136 274 1507 c151 830 276 1514 279 1522 6 18 0 24 276 -284z
m2792 -145 c42 -234 166 -914 275 -1513 l197 -1087 -395 -130 c-892 -291
-1445 -470 -1453 -470 -4 0 -8 466 -8 1036 l0 1036 87 127 c211 308 439 585
967 1174 132 147 243 264 246 260 4 -5 42 -199 84 -433z"/>
<path d="M5780 9873 c-100 -12 -288 -57 -380 -88 -632 -220 -1085 -741 -1221
-1401 -26 -127 -36 -409 -20 -561 64 -610 457 -1174 1008 -1447 266 -132 478
-184 783 -193 330 -10 591 48 883 193 552 275 936 823 1008 1436 17 145 6 443
-20 572 -152 741 -709 1305 -1445 1462 -105 23 -150 26 -341 29 -121 2 -236 1
-255 -2z m490 -398 c302 -59 546 -189 766 -409 214 -214 342 -451 406 -749 28
-136 31 -405 5 -547 -32 -169 -116 -385 -205 -524 -221 -345 -575 -583 -987
-663 -124 -23 -386 -23 -510 0 -412 80 -766 318 -987 663 -89 139 -173 355
-205 524 -26 142 -23 411 5 547 64 298 192 535 406 749 248 247 528 382 886
428 73 9 338 -3 420 -19z"/>
</g>
</svg>
